<?xml version="1.0" encoding="iso-8859-1"?>
<!-- Generator: Adobe Illustrator 17.1.0, SVG Export Plug-In . SVG Version: 6.00 Build 0)  -->
<!DOCTYPE svg PUBLIC "-//W3C//DTD SVG 1.1//EN" "http://www.w3.org/Graphics/SVG/1.1/DTD/svg11.dtd">
<svg version="1.1" id="Capa_1" xmlns="http://www.w3.org/2000/svg" width="64" height="44" viewBox="0 112 368 132" >
<path d="M361.054,47.932H7.5c-4.142,0-7.5,3.358-7.5,7.5v207.5c0,4.142,3.358,7.5,7.5,7.5h81.777c4.142,0,7.5-3.358,7.5-7.5
	s-3.358-7.5-7.5-7.5H15v-192.5h338.554v192.5H226.83c-2.204,0-4.296,0.969-5.721,2.65l-36.833,43.443l-36.833-43.443
	c-2.678-3.16-7.41-3.55-10.571-0.871c-3.16,2.679-3.549,7.412-0.871,10.571l42.553,50.19c1.425,1.681,3.517,2.65,5.721,2.65
	s4.295-0.969,5.721-2.65l40.307-47.541h130.75c4.142,0,7.5-3.358,7.5-7.5v-207.5C368.554,51.29,365.196,47.932,361.054,47.932z"/>
</svg>
