<?xml version="1.0" encoding="UTF-8" standalone="no"?>
<!DOCTYPE svg PUBLIC "-//W3C//DTD SVG 1.1//EN" "http://www.w3.org/Graphics/SVG/1.1/DTD/svg11.dtd">
<svg xmlns:xlink="http://www.w3.org/1999/xlink" version="1.1" xmlns="http://www.w3.org/2000/svg"
     preserveAspectRatio="xMidYMid meet"
     viewBox="0 0 64 47" width="64.1" height="47.42">
    <defs>
        <path d="M62.79 46.8C63.51 46.8 64.1 46.22 64.1 45.5C64.1 41.89 64.1 13.02 64.1 9.41C64.1 8.69 63.51 8.11 62.79 8.11C61.37 8.11 49.99 8.11 48.57 8.11C47.85 8.11 47.27 8.69 47.27 9.41C47.27 10.13 47.85 10.72 48.57 10.72C49.43 10.72 53.74 10.72 61.49 10.72L61.49 44.2L2.61 44.2L2.61 10.72C15.83 10.72 23.18 10.72 24.65 10.72C25.03 10.72 25.39 10.55 25.64 10.26C26.07 9.75 28.2 7.23 32.05 2.7C35.89 7.23 38.03 9.75 38.45 10.26C38.92 10.81 39.74 10.87 40.29 10.41C40.84 9.94 40.91 9.12 40.44 8.57C39.7 7.7 33.78 0.71 33.04 -0.16C32.8 -0.45 32.43 -0.62 32.05 -0.62C31.67 -0.62 31.3 -0.45 31.05 -0.16C30.59 0.39 28.25 3.15 24.04 8.11C10.4 8.11 2.82 8.11 1.3 8.11C0.58 8.11 0 8.69 0 9.41C0 13.02 0 41.89 0 45.5C0 46.22 0.58 46.8 1.3 46.8C13.6 46.8 56.64 46.8 62.79 46.8Z"
              id="b3GeaE1SxB"></path>
    </defs>
    <g>
        <g>
            <use xlink:href="#b3GeaE1SxB" opacity="1" fill-opacity="1"></use>
            <g>
                <use xlink:href="#b3GeaE1SxB" opacity="1" fill-opacity="0" stroke="#000000" stroke-width="1"
                     stroke-opacity="0"></use>
            </g>
        </g>
    </g>
</svg>