<?xml version="1.0" encoding="UTF-8" standalone="no"?>
<!DOCTYPE svg PUBLIC "-//W3C//DTD SVG 1.1//EN" "http://www.w3.org/Graphics/SVG/1.1/DTD/svg11.dtd">
<svg xmlns:xlink="http://www.w3.org/1999/xlink" version="1.1" xmlns="http://www.w3.org/2000/svg"
     preserveAspectRatio="xMidYMid meet"
     viewBox="4 -8 48 64" width="47.42" height="64.1">
    <defs>
        <path d="M8.34 53.84C8.34 54.56 8.92 55.14 9.64 55.14C13.25 55.14 42.12 55.14 45.73 55.14C46.45 55.14 47.03 54.56 47.03 53.84C47.03 52.41 47.03 41.04 47.03 39.61C47.03 38.89 46.45 38.31 45.73 38.31C45.01 38.31 44.42 38.89 44.42 39.61C44.42 40.47 44.42 44.78 44.42 52.53L10.94 52.53L10.94 -6.35L44.42 -6.35C44.42 6.88 44.42 14.22 44.42 15.69C44.42 16.07 44.59 16.44 44.88 16.69C45.39 17.11 47.91 19.25 52.44 23.09C47.91 26.94 45.39 29.07 44.88 29.5C44.33 29.96 44.27 30.79 44.73 31.34C45.2 31.89 46.02 31.95 46.57 31.49C47.44 30.75 54.43 24.83 55.3 24.09C55.59 23.84 55.76 23.48 55.76 23.09C55.76 22.71 55.59 22.34 55.3 22.1C54.75 21.63 51.99 19.29 47.03 15.09C47.03 1.44 47.03 -6.14 47.03 -7.65C47.03 -8.37 46.45 -8.96 45.73 -8.96C42.12 -8.96 13.25 -8.96 9.64 -8.96C8.92 -8.96 8.34 -8.37 8.34 -7.65C8.34 4.65 8.34 47.69 8.34 53.84Z"
              id="cuoh8WsqY"></path>
    </defs>
    <g>
        <g>
            <use xlink:href="#cuoh8WsqY" opacity="1" fill-opacity="1"></use>
            <g>
                <use xlink:href="#cuoh8WsqY" opacity="1" fill-opacity="0" stroke="#000000" stroke-width="1"
                     stroke-opacity="0"></use>
            </g>
        </g>
    </g>
</svg>