<?xml version="1.0" encoding="UTF-8" standalone="no"?>
<!DOCTYPE svg PUBLIC "-//W3C//DTD SVG 1.1//EN" "http://www.w3.org/Graphics/SVG/1.1/DTD/svg11.dtd">
<svg xmlns:xlink="http://www.w3.org/1999/xlink" version="1.1" xmlns="http://www.w3.org/2000/svg"
     preserveAspectRatio="xMidYMid meet"
     viewBox="16 0 48 64" width="44" height="64">
    <defs>
        <path d="M64 1.3C64 0.58 63.42 0 62.7 0C59.09 0 30.27 0 26.67 0C25.95 0 25.36 0.58 25.36 1.3C25.36 2.72 25.36 14.08 25.36 15.5C25.36 16.22 25.95 16.8 26.67 16.8C27.38 16.8 27.97 16.22 27.97 15.5C27.97 14.64 27.97 10.34 27.97 2.6L61.4 2.6L61.4 61.39L27.97 61.39C27.97 48.19 27.97 40.85 27.97 39.39C27.97 39 27.8 38.64 27.51 38.39C27 37.97 24.49 35.84 19.96 32C24.49 28.16 27 26.03 27.51 25.6C28.06 25.14 28.12 24.32 27.66 23.77C27.19 23.22 26.37 23.15 25.82 23.62C24.95 24.35 17.98 30.27 17.11 31C16.82 31.25 16.65 31.62 16.65 32C16.65 32.38 16.82 32.74 17.11 32.99C17.66 33.46 20.41 35.79 25.36 39.99C25.36 53.61 25.36 61.18 25.36 62.69C25.36 63.41 25.95 64 26.67 64C30.27 64 59.09 64 62.7 64C63.42 64 64 63.41 64 62.69C64 50.42 64 7.44 64 1.3Z"
              id="aklmKgzk3"></path>
    </defs>
    <g>
        <g>
            <use xlink:href="#aklmKgzk3" opacity="1" fill-opacity="1"></use>
            <g>
                <use xlink:href="#aklmKgzk3" opacity="1" fill-opacity="0" stroke="#000000" stroke-width="1"
                     stroke-opacity="0"></use>
            </g>
        </g>
    </g>
</svg>